<mxfile host="app.diagrams.net" modified="2023-10-21T20:47:35.795Z" agent="Mozilla/5.0 (Macintosh; Intel Mac OS X 10_15_7) AppleWebKit/537.36 (KHTML, like Gecko) Chrome/118.0.0.0 Safari/537.36" etag="7PmenY_tpO5FNtnfPHVj" version="22.0.6" type="github">
  <diagram id="R2lEEEUBdFMjLlhIrx00" name="Page-1">
    <mxGraphModel dx="749" dy="797" grid="1" gridSize="10" guides="1" tooltips="1" connect="1" arrows="1" fold="1" page="1" pageScale="1" pageWidth="850" pageHeight="1100" math="0" shadow="0" extFonts="Permanent Marker^https://fonts.googleapis.com/css?family=Permanent+Marker">
      <root>
        <mxCell id="0" />
        <mxCell id="1" parent="0" />
        <mxCell id="DCrUhgXeSXr0aNYdPGBc-3" value="" style="edgeStyle=orthogonalEdgeStyle;rounded=0;orthogonalLoop=1;jettySize=auto;html=1;verticalAlign=middle;startArrow=block;startFill=0;endArrow=none;endFill=0;" edge="1" parent="1" source="DCrUhgXeSXr0aNYdPGBc-1" target="DCrUhgXeSXr0aNYdPGBc-2">
          <mxGeometry relative="1" as="geometry" />
        </mxCell>
        <mxCell id="DCrUhgXeSXr0aNYdPGBc-1" value="UIViewController" style="rounded=0;whiteSpace=wrap;html=1;fillColor=#ffe6cc;strokeColor=#d79b00;" vertex="1" parent="1">
          <mxGeometry x="305" y="390" width="120" height="40" as="geometry" />
        </mxCell>
        <mxCell id="DCrUhgXeSXr0aNYdPGBc-5" value="" style="edgeStyle=orthogonalEdgeStyle;rounded=0;orthogonalLoop=1;jettySize=auto;html=1;" edge="1" parent="1" source="DCrUhgXeSXr0aNYdPGBc-2" target="DCrUhgXeSXr0aNYdPGBc-4">
          <mxGeometry relative="1" as="geometry" />
        </mxCell>
        <mxCell id="DCrUhgXeSXr0aNYdPGBc-2" value="FeedViewController" style="whiteSpace=wrap;html=1;rounded=0;fillColor=#e1d5e7;strokeColor=#9673a6;" vertex="1" parent="1">
          <mxGeometry x="305" y="300" width="120" height="40" as="geometry" />
        </mxCell>
        <mxCell id="DCrUhgXeSXr0aNYdPGBc-7" value="" style="edgeStyle=orthogonalEdgeStyle;rounded=0;orthogonalLoop=1;jettySize=auto;html=1;startArrow=block;startFill=0;endArrow=none;endFill=0;dashed=1;" edge="1" parent="1" source="DCrUhgXeSXr0aNYdPGBc-4" target="DCrUhgXeSXr0aNYdPGBc-6">
          <mxGeometry relative="1" as="geometry" />
        </mxCell>
        <mxCell id="DCrUhgXeSXr0aNYdPGBc-9" value="" style="edgeStyle=orthogonalEdgeStyle;rounded=0;orthogonalLoop=1;jettySize=auto;html=1;startArrow=block;startFill=0;dashed=1;endArrow=none;endFill=0;" edge="1" parent="1" source="DCrUhgXeSXr0aNYdPGBc-4" target="DCrUhgXeSXr0aNYdPGBc-8">
          <mxGeometry relative="1" as="geometry" />
        </mxCell>
        <mxCell id="DCrUhgXeSXr0aNYdPGBc-11" value="" style="edgeStyle=orthogonalEdgeStyle;rounded=0;orthogonalLoop=1;jettySize=auto;html=1;startArrow=block;startFill=0;endArrow=none;endFill=0;dashed=1;" edge="1" parent="1" source="DCrUhgXeSXr0aNYdPGBc-4" target="DCrUhgXeSXr0aNYdPGBc-10">
          <mxGeometry relative="1" as="geometry" />
        </mxCell>
        <mxCell id="DCrUhgXeSXr0aNYdPGBc-4" value="&amp;lt;FeedLoader&amp;gt;" style="whiteSpace=wrap;html=1;fillColor=#f8cecc;strokeColor=#b85450;rounded=0;" vertex="1" parent="1">
          <mxGeometry x="305" y="210" width="120" height="40" as="geometry" />
        </mxCell>
        <mxCell id="DCrUhgXeSXr0aNYdPGBc-6" value="RemoteFeedLoader" style="rounded=0;whiteSpace=wrap;html=1;fillColor=#f8cecc;strokeColor=#b85450;" vertex="1" parent="1">
          <mxGeometry x="110" y="210" width="120" height="40" as="geometry" />
        </mxCell>
        <mxCell id="DCrUhgXeSXr0aNYdPGBc-8" value="LocalFeedLoader" style="whiteSpace=wrap;html=1;fillColor=#f8cecc;strokeColor=#b85450;rounded=0;" vertex="1" parent="1">
          <mxGeometry x="505" y="210" width="120" height="40" as="geometry" />
        </mxCell>
        <mxCell id="DCrUhgXeSXr0aNYdPGBc-12" style="edgeStyle=orthogonalEdgeStyle;rounded=0;orthogonalLoop=1;jettySize=auto;html=1;exitX=0;exitY=0.5;exitDx=0;exitDy=0;entryX=0.5;entryY=0;entryDx=0;entryDy=0;" edge="1" parent="1" source="DCrUhgXeSXr0aNYdPGBc-10" target="DCrUhgXeSXr0aNYdPGBc-6">
          <mxGeometry relative="1" as="geometry" />
        </mxCell>
        <mxCell id="DCrUhgXeSXr0aNYdPGBc-13" style="edgeStyle=orthogonalEdgeStyle;rounded=0;orthogonalLoop=1;jettySize=auto;html=1;exitX=1;exitY=0.5;exitDx=0;exitDy=0;entryX=0.5;entryY=0;entryDx=0;entryDy=0;" edge="1" parent="1" source="DCrUhgXeSXr0aNYdPGBc-10" target="DCrUhgXeSXr0aNYdPGBc-8">
          <mxGeometry relative="1" as="geometry" />
        </mxCell>
        <mxCell id="DCrUhgXeSXr0aNYdPGBc-10" value="RemoteWithLocalFallBackFeedLoader" style="whiteSpace=wrap;html=1;fillColor=#f8cecc;strokeColor=#b85450;rounded=0;" vertex="1" parent="1">
          <mxGeometry x="232.5" y="50" width="265" height="40" as="geometry" />
        </mxCell>
      </root>
    </mxGraphModel>
  </diagram>
</mxfile>
